PathFileType	4	(X/Y/Z)	/home/abdul/Desktop/myosuite/custom_workspace/IK/output/S1_12_2.trc
DataRate	CameraRate	NumFrames	NumMarkers	Units	OrigDataRate	OrigDataStartFrame	OrigNumFrames
200.0	200.0	39	3	mm	200.0	592	1578
Frame#	Time	V_Shoulder			V_Elbow			V_Wrist		
		X1	Y1	Z1	X2	Y2	Z2	X3	Y3	Z3

592	2.955	-150.19969952217116	616.6399517369688	415.3141124958599	-352.01312969696505	353.4646673788707	277.7014699617221	-170.98936778021334	314.0489979779942	471.9496382582952
593	2.96	-150.29001182187008	616.7930648906585	415.28670212608205	-351.9944973210239	353.486942554307	277.7896469081161	-170.9789187568473	314.4832177394726	472.0863719576962
594	2.965	-150.3826983380359	616.9446747009453	415.25802353326617	-351.97353486728537	353.5067808540132	277.87010058786296	-170.96853375404933	314.9120262018326	472.2174970946779
595	2.97	-150.4777346385587	617.0947503117617	415.22810762797235	-351.9503455657272	353.5242033000743	277.94289813145605	-170.9583012225554	315.33523823273606	472.3431590013957
596	2.975	-150.57509486766688	617.24325939342	415.1969852857203	-351.9250383042986	353.53924098914734	278.0080964232176	-170.94831920571198	315.75265885261376	472.46349220732947
597	2.98	-150.6747518818153	617.3901680660499	415.1646872357001	-351.8977272376191	353.5519350604933	278.0657412981858	-170.93869550049334	316.1640825836358	472.5786196300557
598	2.985	-150.7766773893714	617.5354408239504	415.13124394948704	-351.8685313684938	353.56233662700413	278.1158667758192	-170.92954778939753	316.56929279911697	472.68865178992274
599	2.99	-150.88084209346945	617.6790404610537	415.09668553018827	-351.8375741042197	353.57050666956	278.158494334212	-170.92100374163806	316.9680610770872	472.7936860504499
600	2.995	-150.98721583738578	617.8209279977	415.06104160245576	-351.80498278982003	353.5765158952073	278.1936322284166	-170.91320108211417	317.36014656193254	472.89380588620446
601	3.0	-151.09576775177732	617.9610626089176	415.02434120379667	-351.7708882204913	353.58044455979166	278.22127485635696	-170.90628762672162	317.74529533817866	472.98908017984945
602	3.005	-151.20646640311622	618.0994015544053	414.9866126776155	-351.735424135687	353.5823822558282	278.24140217568754	-170.9004212826501	318.12323982063526	473.0795625499879
603	3.01	-151.3192799426479	618.2359001104116	414.9478835684131	-351.6987266973791	353.58242766652097	278.2539791748096	-170.8957700124107	318.49369816524734	473.1652907113697
604	3.015	-151.4341762551984	618.3705115037068	414.90818051956927	-351.6609339551444	353.5806882869747	278.2589554010965	-170.89251176044314	318.8563737051059	473.24628586896415
605	3.02	-151.55112310715808	618.5031868478383	414.8675291741211	-351.6221853008106	353.57728011376264	278.2562645492044	-170.89083434126496	319.2109544161582	473.32255214733595
606	3.025	-151.6700882929738	618.6338750818655	414.82595407894377	-351.58262091546385	353.5723273041235	278.2458241121538	-170.89093528825165	319.5571124172153	473.39407605670283
607	3.03	-151.79103977949032	618.7625229117597	414.7834785927268	-351.54238121167384	353.56596180616606	278.22753509765744	-170.89302166226864	319.89450350889433	473.46082599698855
608	3.035	-151.91394584749318	618.8890747546648	414.7401247981263	-351.5016062738198	353.55832296155194	278.2012818119488	-170.89730981951692	320.22276675613773	473.52275180112395
609	3.04	-152.03877522982134	619.0134726862003	414.695913418454	-351.46043529941386	353.54955708221433	278.1669317131223	-170.90402513810523	320.5415241189385	473.5797843187819
610	3.045	-152.165497245436	619.1356563909989	414.65086373924925	-351.419006044312	353.53981700274153	278.12433533574267	-170.91340170301766	320.85038013584654	473.63183504167154
611	3.05	-152.29408192885373	619.2555631166559	414.6049935350583	-351.3774542746696	353.5292616101243	278.0733262882064	-170.9256819493107	321.14892166475875	473.67879577144856
612	3.055	-152.42450015437734	619.3731276312805	414.5583190017208	-351.33591322845444	353.51805535261997	278.0137213240531	-170.94111626354322	321.43671768538496	473.7205383312323
613	3.06	-152.55672375458636	619.4882821848236	414.5108546944444	-351.29451308925985	353.5063677295333	277.945320488123	-170.95996254361995	321.71331916764314	473.7569143216524
614	3.065	-152.69072563257768	619.6009564743648	414.46261347191665	-351.2533804750746	353.494372763754	277.86790733813933	-170.98248571740857	321.97825901006604	473.7877549222768
615	3.07	-152.82647986748293	619.7110776135315	414.41360644668066	-351.2126379445585	353.4822484589173	277.7812492419704	-171.00895722067634	322.2310520521013	473.8128707392006
616	3.075	-152.9639618128224	619.8185701062285	414.36384294196773	-351.1724035232499	353.47017624307716	277.68509775048335	-171.03965443507883	322.4711951639503	473.83205169949986
617	3.08	-153.10314818729424	619.9233558248467	414.313330455155	-351.13279025198983	353.4583404007944	277.57918904555595	-171.07486008712314	322.69816741733064	473.84506699317706
618	3.085	-153.24401715763815	620.0253539931214	414.2620746279793	-351.0939057596901	353.44692749554497	277.4632444624515	-171.1148616092192	322.9114303402485	473.8516650631457
619	3.09	-153.38654841325183	620.1244811738104	414.21007922361014	-351.05585186239966	353.4361257843559	277.33697108540287	-171.15995046412195	323.1104282585475	473.85157364371645
620	3.095	-153.5307232322839	620.2206512613521	414.157346110648	-351.0187241904388	353.4261246265627	277.20006241488056	-171.2104214342574	323.29458872664253	473.84449984796333
621	3.1	-153.676524538969	620.3137754796697	414.10387525408277	-350.98261184517037	353.41711388857186	277.0521991046508	-171.2665718776118	323.463323049474	473.8301303042574
622	3.105	-153.82393695201694	620.4037623852772	414.0496647132113	-350.94759708677134	353.40928334649016	276.8930497663591	-171.32870095204737	323.6160268973073	473.8081313421649
623	3.11	-153.97294682391106	620.4905178758477	413.99471064647815	-350.9137550541477	353.40282208845565	276.72227183900964	-171.39710881008614	323.7520810145783	473.778149227811
624	3.115	-154.12354227101943	620.5739452043925	413.9390073231696	-350.8811535179119	353.3979179184796	276.5395125203459	-171.47209576637707	323.87085202353416	473.73981044871107
625	3.12	-154.2757131944653	620.6539449992034	413.8825471418559	-350.84985266711016	353.394756763572	276.344409756788	-171.55396144022774	323.971693322949	473.69272204797255
626	3.125	-154.42945129175123	620.7304152897034	413.82532065544456	-350.8199049301554	353.3935220858864	276.13659328823684	-171.64300387574036	324.0539460817114	473.63647200766553
627	3.13	-154.58475005917327	620.8032515383444	413.76731660267063	-350.7913548301854	353.394394301584	275.9156857437266	-171.73951864224085	324.1169403265774	473.57062968105265
628	3.135	-154.7416047851092	620.8723466786956	413.70852194582085	-350.7642388748301	353.3975502080701	275.6813037835958	-171.84379791782976	324.1599961228761	473.4947462732621
629	3.14	-154.90001253430395	620.9375911598465	413.64892191445546	-350.73858548014323	353.4031624212163	275.4330592835517	-171.9561295590108	324.1824248464334	473.40835536987584
630	3.145	-155.0599721233207	620.9988729972578	413.5885000548605	-350.7144149282226	353.41139882413427	275.1705605557321	-172.07679615946932	324.18353054445697	473.3109735127931
